REM DIRINDEX 1\2\4,1\2\5,1\2\6,1\2\7,1\3\8,1\3\9
REM DIRNAME cjc037,folder01,folder02,folder03,folder04,folder05,folder06,folder07,folder08
TITLE ""
FILE "Disc2Track02.mp3" MP3
  TRACK 01 AUDIO
    TITLE "0:"
    INDEX 01 00:00:00
  TRACK 02 AUDIO
    TITLE "4:cjc037_0857"
    INDEX 01 00:00:07
  TRACK 03 AUDIO
    TITLE "0:"
    INDEX 01 00:01:52
  TRACK 04 AUDIO
    TITLE "4:cjc037_0858"
    INDEX 01 00:02:55
  TRACK 05 AUDIO
    TITLE "0:"
    INDEX 01 00:04:35
  TRACK 06 AUDIO
    TITLE "5:cjc037_0859"
    INDEX 01 00:05:12
  TRACK 07 AUDIO
    TITLE "0:"
    INDEX 01 00:08:07
  TRACK 08 AUDIO
    TITLE "6:cjc037_0860"
    INDEX 01 00:11:40
  TRACK 09 AUDIO
    TITLE "0:"
    INDEX 01 00:13:73
  TRACK 10 AUDIO
    TITLE "7:cjc037_0861"
    INDEX 01 00:17:33
  TRACK 11 AUDIO
    TITLE "0:"
    INDEX 01 00:19:22
  TRACK 12 AUDIO
    TITLE "4:cjc037_0862"
    INDEX 01 00:21:57
  TRACK 13 AUDIO
    TITLE "0:"
    INDEX 01 00:23:22
  TRACK 14 AUDIO
    TITLE "5:cjc037_0863"
    INDEX 01 00:24:00
  TRACK 15 AUDIO
    TITLE "0:"
    INDEX 01 00:27:34
  TRACK 16 AUDIO
    TITLE "6:cjc037_0864"
    INDEX 01 00:30:69
  TRACK 17 AUDIO
    TITLE "0:"
    INDEX 01 00:33:34
  TRACK 18 AUDIO
    TITLE "7:cjc037_0865"
    INDEX 01 00:36:66
  TRACK 19 AUDIO
    TITLE "0:"
    INDEX 01 00:38:73
  TRACK 20 AUDIO
    TITLE "4:cjc037_0866"
    INDEX 01 00:41:34
  TRACK 21 AUDIO
    TITLE "0:"
    INDEX 01 00:43:13
  TRACK 22 AUDIO
    TITLE "5:cjc037_0867"
    INDEX 01 00:43:64
  TRACK 23 AUDIO
    TITLE "0:"
    INDEX 01 00:48:02
  TRACK 24 AUDIO
    TITLE "6:cjc037_0868"
    INDEX 01 00:51:38
  TRACK 25 AUDIO
    TITLE "0:"
    INDEX 01 00:55:55
  TRACK 26 AUDIO
    TITLE "7:cjc037_0869"
    INDEX 01 00:59:16
  TRACK 27 AUDIO
    TITLE "0:"
    INDEX 01 01:02:44
  TRACK 28 AUDIO
    TITLE "4:cjc037_0870"
    INDEX 01 01:05:01
  TRACK 29 AUDIO
    TITLE "0:"
    INDEX 01 01:06:53
  TRACK 30 AUDIO
    TITLE "5:cjc037_0871"
    INDEX 01 01:07:31
  TRACK 31 AUDIO
    TITLE "0:"
    INDEX 01 01:11:29
  TRACK 32 AUDIO
    TITLE "6:cjc037_0872"
    INDEX 01 01:14:63
  TRACK 33 AUDIO
    TITLE "0:"
    INDEX 01 01:17:67
  TRACK 34 AUDIO
    TITLE "7:cjc037_0873"
    INDEX 01 01:21:27
  TRACK 35 AUDIO
    TITLE "0:"
    INDEX 01 01:23:52
  TRACK 36 AUDIO
    TITLE "4:cjc037_0874"
    INDEX 01 01:26:13
  TRACK 37 AUDIO
    TITLE "0:"
    INDEX 01 01:27:50
  TRACK 38 AUDIO
    TITLE "5:cjc037_0875"
    INDEX 01 01:28:27
  TRACK 39 AUDIO
    TITLE "0:"
    INDEX 01 01:32:19
  TRACK 40 AUDIO
    TITLE "6:cjc037_0876"
    INDEX 01 01:35:53
  TRACK 41 AUDIO
    TITLE "0:"
    INDEX 01 01:38:61
  TRACK 42 AUDIO
    TITLE "7:cjc037_0877"
    INDEX 01 01:42:20
  TRACK 43 AUDIO
    TITLE "0:"
    INDEX 01 01:44:52
  TRACK 44 AUDIO
    TITLE "4:cjc037_0878"
    INDEX 01 01:47:15
  TRACK 45 AUDIO
    TITLE "0:"
    INDEX 01 01:48:67
  TRACK 46 AUDIO
    TITLE "5:cjc037_0879"
    INDEX 01 01:49:41
  TRACK 47 AUDIO
    TITLE "0:"
    INDEX 01 01:52:28
  TRACK 48 AUDIO
    TITLE "6:cjc037_0880"
    INDEX 01 01:55:63
  TRACK 49 AUDIO
    TITLE "0:"
    INDEX 01 01:58:64
  TRACK 50 AUDIO
    TITLE "7:cjc037_0881"
    INDEX 01 02:02:24
  TRACK 51 AUDIO
    TITLE "0:"
    INDEX 01 02:04:64
  TRACK 52 AUDIO
    TITLE "4:cjc037_0882"
    INDEX 01 02:07:22
  TRACK 53 AUDIO
    TITLE "0:"
    INDEX 01 02:08:70
  TRACK 54 AUDIO
    TITLE "5:cjc037_0883"
    INDEX 01 02:09:46
  TRACK 55 AUDIO
    TITLE "0:"
    INDEX 01 02:13:40
  TRACK 56 AUDIO
    TITLE "6:cjc037_0884"
    INDEX 01 02:16:73
  TRACK 57 AUDIO
    TITLE "0:"
    INDEX 01 02:19:35
  TRACK 58 AUDIO
    TITLE "7:cjc037_0885"
    INDEX 01 02:22:66
  TRACK 59 AUDIO
    TITLE "0:"
    INDEX 01 02:24:67
  TRACK 60 AUDIO
    TITLE "4:cjc037_0886"
    INDEX 01 02:27:28
  TRACK 61 AUDIO
    TITLE "0:"
    INDEX 01 02:29:08
  TRACK 62 AUDIO
    TITLE "5:cjc037_0887"
    INDEX 01 02:29:64
  TRACK 63 AUDIO
    TITLE "0:"
    INDEX 01 02:31:73
  TRACK 64 AUDIO
    TITLE "6:cjc037_0888"
    INDEX 01 02:35:36
  TRACK 65 AUDIO
    TITLE "0:"
    INDEX 01 02:37:38
  TRACK 66 AUDIO
    TITLE "7:cjc037_0889"
    INDEX 01 02:40:72
  TRACK 67 AUDIO
    TITLE "0:"
    INDEX 01 02:42:49
  TRACK 68 AUDIO
    TITLE "4:cjc037_0890"
    INDEX 01 02:45:09
  TRACK 69 AUDIO
    TITLE "0:"
    INDEX 01 02:46:61
  TRACK 70 AUDIO
    TITLE "5:cjc037_0891"
    INDEX 01 02:47:35
  TRACK 71 AUDIO
    TITLE "0:"
    INDEX 01 02:50:18
  TRACK 72 AUDIO
    TITLE "6:cjc037_0892"
    INDEX 01 02:53:51
  TRACK 73 AUDIO
    TITLE "0:"
    INDEX 01 02:56:22
  TRACK 74 AUDIO
    TITLE "7:cjc037_0893"
    INDEX 01 02:59:58
  TRACK 75 AUDIO
    TITLE "0:"
    INDEX 01 03:01:57
  TRACK 76 AUDIO
    TITLE "4:cjc037_0894"
    INDEX 01 03:04:14
  TRACK 77 AUDIO
    TITLE "0:"
    INDEX 01 03:05:58
  TRACK 78 AUDIO
    TITLE "5:cjc037_0895"
    INDEX 01 03:06:30
  TRACK 79 AUDIO
    TITLE "0:"
    INDEX 01 03:09:40
  TRACK 80 AUDIO
    TITLE "6:cjc037_0896"
    INDEX 01 03:13:01
  TRACK 81 AUDIO
    TITLE "0:"
    INDEX 01 03:15:66
  TRACK 82 AUDIO
    TITLE "7:cjc037_0897"
    INDEX 01 03:19:23
  TRACK 83 AUDIO
    TITLE "0:"
    INDEX 01 03:21:40
  TRACK 84 AUDIO
    TITLE "4:cjc037_0898"
    INDEX 01 03:23:72
  TRACK 85 AUDIO
    TITLE "0:"
    INDEX 01 03:25:55
  TRACK 86 AUDIO
    TITLE "5:cjc037_0899"
    INDEX 01 03:26:29
  TRACK 87 AUDIO
    TITLE "0:"
    INDEX 01 03:30:39
  TRACK 88 AUDIO
    TITLE "6:cjc037_0900"
    INDEX 01 03:33:72
  TRACK 89 AUDIO
    TITLE "0:"
    INDEX 01 03:37:25
  TRACK 90 AUDIO
    TITLE "7:cjc037_0901"
    INDEX 01 03:40:60
  TRACK 91 AUDIO
    TITLE "0:"
    INDEX 01 03:43:31
  TRACK 92 AUDIO
    TITLE "4:cjc037_0902"
    INDEX 01 03:45:66
  TRACK 93 AUDIO
    TITLE "0:"
    INDEX 01 03:47:47
  TRACK 94 AUDIO
    TITLE "5:cjc037_0903"
    INDEX 01 03:48:25
  TRACK 95 AUDIO
    TITLE "0:"
    INDEX 01 03:52:11
  TRACK 96 AUDIO
    TITLE "6:cjc037_0904"
    INDEX 01 03:55:44
  TRACK 97 AUDIO
    TITLE "0:"
    INDEX 01 03:58:29
  TRACK 98 AUDIO
    TITLE "7:cjc037_0905"
    INDEX 01 04:01:63
  TRACK 99 AUDIO
    TITLE "0:"
    INDEX 01 04:03:71
